<svg width="1400" height="593" viewBox="0 0 1400 593" fill="none" xmlns="http://www.w3.org/2000/svg">
<rect width="1400" height="593" fill="#F2F2F2"/>
<path d="M23.372 30.464H20.78V19.904H23.372V21.02H22.076V29.348H23.372V30.464ZM27.8209 29H26.5009V20.42H27.8209V24.008H32.0329V20.42H33.3649V29H32.0329V25.148H27.8209V29ZM40.099 25.808C40.099 25.976 40.099 26.156 40.087 26.252H35.383C35.407 27.272 36.007 28.22 37.219 28.22C38.299 28.22 38.719 27.524 38.827 27.116H40.027C39.703 28.292 38.803 29.18 37.195 29.18C35.251 29.18 34.171 27.8 34.171 25.928C34.171 24.008 35.323 22.688 37.195 22.688C39.055 22.688 40.099 23.912 40.099 25.808ZM35.383 25.328H38.875C38.875 24.368 38.203 23.648 37.159 23.648C36.175 23.648 35.455 24.32 35.383 25.328ZM41.492 31.148C41.228 31.148 41.048 31.124 40.736 31.064V30.104C40.94 30.128 41.048 30.14 41.24 30.14C41.708 30.14 42.26 29.9 42.5 28.94L40.028 22.88H41.312L43.1 27.56H43.124L44.804 22.88H46.04L43.616 29.144C43.028 30.656 42.44 31.148 41.492 31.148ZM45.7077 30.632V29.984C46.1517 29.852 46.3437 29.624 46.3317 29H45.7077V27.692H47.0157V29C47.0157 29.78 46.6677 30.392 45.7077 30.632ZM51.2127 21.788H49.8807V20.516H51.2127V21.788ZM51.1287 29H49.9527V22.88H51.1287V29ZM54.4648 28.1C54.6688 28.1 54.7648 28.088 54.9688 28.052V29C54.6688 29.06 54.4768 29.072 54.2247 29.072C53.2168 29.072 52.6048 28.688 52.6048 27.272V23.852H51.7167V22.88H52.6048V20.912H53.7807V22.88H54.9568V23.852H53.7807V27.308C53.7807 27.956 53.9607 28.1 54.4648 28.1ZM55.5873 23.36V22.7C56.0193 22.58 56.2113 22.34 56.2113 21.728H55.5873V20.42H56.8833V21.728C56.8833 22.508 56.5473 23.12 55.5873 23.36ZM59.6368 29.168C57.7768 29.168 56.8528 28.208 56.8168 26.96H58.0048C58.0528 27.668 58.4848 28.22 59.6248 28.22C60.6568 28.22 60.9328 27.764 60.9328 27.32C60.9328 26.552 60.1168 26.468 59.3248 26.3C58.2568 26.048 57.0328 25.736 57.0328 24.464C57.0328 23.408 57.8848 22.7 59.3608 22.7C61.0408 22.7 61.8448 23.6 61.9288 24.656H60.7408C60.6568 24.188 60.4048 23.648 59.3848 23.648C58.5928 23.648 58.2568 23.96 58.2568 24.416C58.2568 25.052 58.9408 25.112 59.8048 25.304C60.9328 25.568 62.1568 25.892 62.1568 27.26C62.1568 28.448 61.2448 29.168 59.6368 29.168ZM72.444 29H70.896L67.992 24.872L66.624 26.324V29H65.304V20.42H66.624V24.764L70.692 20.42H72.168L68.808 23.996L72.444 29ZM73.9484 21.788H72.6164V20.516H73.9484V21.788ZM73.8644 29H72.6884V22.88H73.8644V29ZM77.3565 29.168C75.4965 29.168 74.5725 28.208 74.5365 26.96H75.7245C75.7725 27.668 76.2045 28.22 77.3445 28.22C78.3765 28.22 78.6525 27.764 78.6525 27.32C78.6525 26.552 77.8365 26.468 77.0445 26.3C75.9765 26.048 74.7525 25.736 74.7525 24.464C74.7525 23.408 75.6045 22.7 77.0805 22.7C78.7605 22.7 79.5645 23.6 79.6485 24.656H78.4605C78.3765 24.188 78.1245 23.648 77.1045 23.648C76.3125 23.648 75.9765 23.96 75.9765 24.416C75.9765 25.052 76.6605 25.112 77.5245 25.304C78.6525 25.568 79.8765 25.892 79.8765 27.26C79.8765 28.448 78.9645 29.168 77.3565 29.168ZM83.7799 22.7C84.9079 22.7 85.8199 23.348 85.8199 24.752V29H84.6439V25.076C84.6439 24.26 84.2839 23.708 83.3959 23.708C82.3879 23.708 81.7399 24.32 81.7399 25.244V29H80.5639V20.42H81.7399V23.648H81.7639C82.0879 23.18 82.7239 22.7 83.7799 22.7ZM88.5433 29.168C87.3193 29.168 86.5393 28.46 86.5393 27.416C86.5393 26.048 87.5713 25.64 89.0953 25.352C90.0553 25.172 90.6433 25.052 90.6433 24.452C90.6433 24.008 90.3793 23.636 89.4793 23.636C88.4113 23.636 88.0873 23.972 88.0273 24.788H86.8273C86.8873 23.612 87.6553 22.688 89.5273 22.688C90.7873 22.688 91.7953 23.216 91.7953 24.8V27.608C91.7953 28.052 91.8553 28.28 92.0833 28.28C92.1193 28.28 92.1553 28.28 92.2273 28.268V28.988C92.0233 29.036 91.8193 29.06 91.6273 29.06C91.0393 29.06 90.7273 28.832 90.6553 28.136H90.6313C90.2353 28.772 89.5393 29.168 88.5433 29.168ZM88.8073 28.22C89.8633 28.22 90.6433 27.68 90.6433 26.612V25.736C90.4513 25.916 89.9233 26.048 89.2993 26.18C88.2193 26.396 87.7633 26.696 87.7633 27.332C87.7633 27.908 88.0753 28.22 88.8073 28.22ZM98.5382 29H97.2062V21.56H94.4342V20.42H101.31V21.56H98.5382V29ZM102.167 29.168C100.943 29.168 100.163 28.46 100.163 27.416C100.163 26.048 101.195 25.64 102.719 25.352C103.679 25.172 104.267 25.052 104.267 24.452C104.267 24.008 104.003 23.636 103.103 23.636C102.035 23.636 101.711 23.972 101.651 24.788H100.451C100.511 23.612 101.279 22.688 103.151 22.688C104.411 22.688 105.419 23.216 105.419 24.8V27.608C105.419 28.052 105.479 28.28 105.707 28.28C105.743 28.28 105.779 28.28 105.851 28.268V28.988C105.647 29.036 105.443 29.06 105.251 29.06C104.663 29.06 104.351 28.832 104.279 28.136H104.255C103.859 28.772 103.163 29.168 102.167 29.168ZM102.431 28.22C103.487 28.22 104.267 27.68 104.267 26.612V25.736C104.075 25.916 103.547 26.048 102.923 26.18C101.843 26.396 101.387 26.696 101.387 27.332C101.387 27.908 101.699 28.22 102.431 28.22ZM108.749 28.1C108.953 28.1 109.049 28.088 109.253 28.052V29C108.953 29.06 108.761 29.072 108.509 29.072C107.501 29.072 106.889 28.688 106.889 27.272V23.852H106.001V22.88H106.889V20.912H108.065V22.88H109.241V23.852H108.065V27.308C108.065 27.956 108.245 28.1 108.749 28.1ZM112.235 28.1C112.439 28.1 112.535 28.088 112.739 28.052V29C112.439 29.06 112.247 29.072 111.995 29.072C110.987 29.072 110.375 28.688 110.375 27.272V23.852H109.487V22.88H110.375V20.912H111.551V22.88H112.727V23.852H111.551V27.308C111.551 27.956 111.731 28.1 112.235 28.1ZM116.073 29.18C114.165 29.18 113.013 27.86 113.013 25.94C113.013 24.032 114.165 22.688 116.085 22.688C117.981 22.688 119.133 24.02 119.133 25.928C119.133 27.848 117.981 29.18 116.073 29.18ZM116.085 28.208C117.333 28.208 117.909 27.212 117.909 25.94C117.909 24.656 117.333 23.672 116.085 23.672C114.813 23.672 114.237 24.656 114.237 25.94C114.237 27.212 114.813 28.208 116.085 28.208ZM122.63 29.18C120.722 29.18 119.57 27.86 119.57 25.94C119.57 24.032 120.722 22.688 122.642 22.688C124.538 22.688 125.69 24.02 125.69 25.928C125.69 27.848 124.538 29.18 122.63 29.18ZM122.642 28.208C123.89 28.208 124.466 27.212 124.466 25.94C124.466 24.656 123.89 23.672 122.642 23.672C121.37 23.672 120.794 24.656 120.794 25.94C120.794 27.212 121.37 28.208 122.642 28.208ZM130.903 30.464H128.311V29.348H129.607V21.02H128.311V19.904H130.903V30.464Z" fill="#0D0D0D"/>
<path d="M37.94 83H23.692V45.82H37.836C48.132 45.82 54.372 52.476 54.372 64.436C54.372 76.396 48.236 83 37.94 83ZM29.412 78.06H37.576C46.208 78.06 48.444 71.612 48.444 64.436C48.444 57.26 46.208 50.76 37.576 50.76H29.412V78.06ZM70.1479 55.856C71.0839 55.856 71.8119 55.908 72.5919 56.012V60.9C71.9679 60.796 71.4999 60.744 70.8759 60.744C66.2479 60.744 62.9199 64.228 62.9199 69.272V83H57.8239V56.48H62.9199V61.524H63.0239C64.4279 58.196 66.5599 55.856 70.1479 55.856ZM85.6008 83.78C77.3328 83.78 72.3408 78.06 72.3408 69.74C72.3408 61.472 77.3328 55.648 85.6528 55.648C93.8688 55.648 98.8608 61.42 98.8608 69.688C98.8608 78.008 93.8688 83.78 85.6008 83.78ZM85.6528 79.568C91.0608 79.568 93.5568 75.252 93.5568 69.74C93.5568 64.176 91.0608 59.912 85.6528 59.912C80.1408 59.912 77.6448 64.176 77.6448 69.74C77.6448 75.252 80.1408 79.568 85.6528 79.568ZM115.522 55.7C122.282 55.7 127.43 61.004 127.43 69.74C127.43 78.476 122.282 83.728 115.522 83.728C111.362 83.728 108.814 81.856 107.358 79.724H107.254V92.204H102.158V56.48H107.254V59.6H107.358C108.814 57.728 111.362 55.7 115.522 55.7ZM114.69 79.516C119.682 79.516 122.074 74.94 122.074 69.74C122.074 64.54 119.682 59.964 114.69 59.964C110.114 59.964 107.306 63.708 107.306 69.74C107.306 75.72 110.114 79.516 114.69 79.516ZM169.461 55.7C174.817 55.7 177.521 58.924 177.521 64.592V83H172.425V65.996C172.425 62.46 171.697 60.068 167.797 60.068C164.001 60.068 161.609 62.72 161.609 66.724V83H156.513V65.996C156.513 62.46 155.785 60.068 151.885 60.068C148.089 60.068 145.697 62.72 145.697 66.724V83H140.601V56.48H145.697V59.808H145.801C147.205 57.78 149.649 55.7 153.653 55.7C157.345 55.7 159.633 57.364 160.673 60.328H160.777C162.701 57.78 165.405 55.7 169.461 55.7ZM206.401 69.168C206.401 69.896 206.401 70.676 206.349 71.092H185.965C186.069 75.512 188.669 79.62 193.921 79.62C198.601 79.62 200.421 76.604 200.889 74.836H206.089C204.685 79.932 200.785 83.78 193.817 83.78C185.393 83.78 180.713 77.8 180.713 69.688C180.713 61.368 185.705 55.648 193.817 55.648C201.877 55.648 206.401 60.952 206.401 69.168ZM185.965 67.088H201.097C201.097 62.928 198.185 59.808 193.661 59.808C189.397 59.808 186.277 62.72 185.965 67.088ZM226.825 83.728C221.521 83.728 218.141 80.66 218.141 76.136C218.141 70.208 222.613 68.44 229.217 67.192C233.377 66.412 235.925 65.892 235.925 63.292C235.925 61.368 234.781 59.756 230.881 59.756C226.253 59.756 224.849 61.212 224.589 64.748H219.389C219.649 59.652 222.977 55.648 231.089 55.648C236.549 55.648 240.917 57.936 240.917 64.8V76.968C240.917 78.892 241.177 79.88 242.165 79.88C242.321 79.88 242.477 79.88 242.789 79.828V82.948C241.905 83.156 241.021 83.26 240.189 83.26C237.641 83.26 236.289 82.272 235.977 79.256H235.873C234.157 82.012 231.141 83.728 226.825 83.728ZM227.969 79.62C232.545 79.62 235.925 77.28 235.925 72.652V68.856C235.093 69.636 232.805 70.208 230.101 70.78C225.421 71.716 223.445 73.016 223.445 75.772C223.445 78.268 224.797 79.62 227.969 79.62ZM284.765 55.7C290.121 55.7 292.825 58.924 292.825 64.592V83H287.729V65.996C287.729 62.46 287.001 60.068 283.101 60.068C279.305 60.068 276.913 62.72 276.913 66.724V83H271.817V65.996C271.817 62.46 271.089 60.068 267.189 60.068C263.393 60.068 261.001 62.72 261.001 66.724V83H255.905V56.48H261.001V59.808H261.105C262.509 57.78 264.953 55.7 268.957 55.7C272.649 55.7 274.937 57.364 275.977 60.328H276.081C278.005 57.78 280.709 55.7 284.765 55.7ZM321.705 69.168C321.705 69.896 321.705 70.676 321.653 71.092H301.269C301.373 75.512 303.973 79.62 309.225 79.62C313.905 79.62 315.725 76.604 316.193 74.836H321.393C319.989 79.932 316.089 83.78 309.121 83.78C300.697 83.78 296.017 77.8 296.017 69.688C296.017 61.368 301.009 55.648 309.121 55.648C317.181 55.648 321.705 60.952 321.705 69.168ZM301.269 67.088H316.401C316.401 62.928 313.489 59.808 308.965 59.808C304.701 59.808 301.581 62.72 301.269 67.088ZM335.422 83.728C327.362 83.728 323.358 79.568 323.202 74.16H328.35C328.558 77.228 330.43 79.62 335.37 79.62C339.842 79.62 341.038 77.644 341.038 75.72C341.038 72.392 337.502 72.028 334.07 71.3C329.442 70.208 324.138 68.856 324.138 63.344C324.138 58.768 327.83 55.7 334.226 55.7C341.506 55.7 344.99 59.6 345.354 64.176H340.206C339.842 62.148 338.75 59.808 334.33 59.808C330.898 59.808 329.442 61.16 329.442 63.136C329.442 65.892 332.406 66.152 336.15 66.984C341.038 68.128 346.342 69.532 346.342 75.46C346.342 80.608 342.39 83.728 335.422 83.728ZM359.772 83.728C351.712 83.728 347.708 79.568 347.552 74.16H352.7C352.908 77.228 354.78 79.62 359.72 79.62C364.192 79.62 365.388 77.644 365.388 75.72C365.388 72.392 361.852 72.028 358.42 71.3C353.792 70.208 348.488 68.856 348.488 63.344C348.488 58.768 352.18 55.7 358.576 55.7C365.856 55.7 369.34 59.6 369.704 64.176H364.556C364.192 62.148 363.1 59.808 358.68 59.808C355.248 59.808 353.792 61.16 353.792 63.136C353.792 65.892 356.756 66.152 360.5 66.984C365.388 68.128 370.692 69.532 370.692 75.46C370.692 80.608 366.74 83.728 359.772 83.728ZM381.003 83.728C375.699 83.728 372.319 80.66 372.319 76.136C372.319 70.208 376.791 68.44 383.395 67.192C387.555 66.412 390.103 65.892 390.103 63.292C390.103 61.368 388.959 59.756 385.059 59.756C380.431 59.756 379.027 61.212 378.767 64.748H373.567C373.827 59.652 377.155 55.648 385.267 55.648C390.727 55.648 395.095 57.936 395.095 64.8V76.968C395.095 78.892 395.355 79.88 396.343 79.88C396.499 79.88 396.655 79.88 396.967 79.828V82.948C396.083 83.156 395.199 83.26 394.367 83.26C391.819 83.26 390.467 82.272 390.155 79.256H390.051C388.335 82.012 385.319 83.728 381.003 83.728ZM382.147 79.62C386.723 79.62 390.103 77.28 390.103 72.652V68.856C389.271 69.636 386.983 70.208 384.279 70.78C379.599 71.716 377.623 73.016 377.623 75.772C377.623 78.268 378.975 79.62 382.147 79.62ZM418.671 59.6V56.48H423.767V80.92C423.767 88.928 418.931 92.516 411.339 92.516C403.747 92.516 399.951 88.876 399.431 84.092H404.735C405.255 86.484 407.023 88.356 411.339 88.356C416.175 88.356 418.671 86.224 418.671 81.232V77.644H418.567C417.111 79.776 414.667 81.648 410.403 81.648C403.799 81.648 398.703 77.176 398.703 68.7C398.703 60.172 403.799 55.7 410.403 55.7C414.667 55.7 417.111 57.728 418.567 59.6H418.671ZM411.339 77.436C415.915 77.436 418.619 74.472 418.619 68.7C418.619 62.876 415.915 59.964 411.339 59.964C406.347 59.964 404.007 63.708 404.007 68.7C404.007 73.692 406.347 77.436 411.339 77.436ZM452.751 69.168C452.751 69.896 452.751 70.676 452.699 71.092H432.315C432.419 75.512 435.019 79.62 440.271 79.62C444.951 79.62 446.771 76.604 447.239 74.836H452.439C451.035 79.932 447.135 83.78 440.167 83.78C431.743 83.78 427.063 77.8 427.063 69.688C427.063 61.368 432.055 55.648 440.167 55.648C448.227 55.648 452.751 60.952 452.751 69.168ZM432.315 67.088H447.447C447.447 62.928 444.535 59.808 440.011 59.808C435.747 59.808 432.627 62.72 432.315 67.088ZM479.207 55.7C485.967 55.7 491.115 61.004 491.115 69.74C491.115 78.476 485.967 83.728 479.207 83.728C475.047 83.728 472.499 81.856 471.043 79.724H470.939V83H465.843V45.82H470.939V59.6H471.043C472.499 57.728 475.047 55.7 479.207 55.7ZM478.375 79.516C483.367 79.516 485.759 74.94 485.759 69.74C485.759 64.54 483.367 59.964 478.375 59.964C473.799 59.964 470.991 63.708 470.991 69.74C470.991 75.72 473.799 79.516 478.375 79.516ZM518.795 69.168C518.795 69.896 518.795 70.676 518.743 71.092H498.359C498.463 75.512 501.063 79.62 506.315 79.62C510.995 79.62 512.815 76.604 513.283 74.836H518.483C517.079 79.932 513.179 83.78 506.211 83.78C497.787 83.78 493.107 77.8 493.107 69.688C493.107 61.368 498.099 55.648 506.211 55.648C514.271 55.648 518.795 60.952 518.795 69.168ZM498.359 67.088H513.491C513.491 62.928 510.579 59.808 506.055 59.808C501.791 59.808 498.671 62.72 498.359 67.088ZM527.156 83H522.06V45.82H527.156V83ZM543.692 83.78C535.424 83.78 530.432 78.06 530.432 69.74C530.432 61.472 535.424 55.648 543.744 55.648C551.96 55.648 556.952 61.42 556.952 69.688C556.952 78.008 551.96 83.78 543.692 83.78ZM543.744 79.568C549.152 79.568 551.648 75.252 551.648 69.74C551.648 64.176 549.152 59.912 543.744 59.912C538.232 59.912 535.736 64.176 535.736 69.74C535.736 75.252 538.232 79.568 543.744 79.568ZM570.665 83H565.413L557.197 56.48H562.709L568.325 77.02H568.429L573.941 56.48H579.089L584.601 77.02H584.705L590.373 56.48H595.677L587.461 83H582.209L576.489 62.564H576.385L570.665 83ZM618.674 83.78C610.406 83.78 605.414 78.06 605.414 69.74C605.414 61.472 610.406 55.648 618.726 55.648C626.942 55.648 631.934 61.42 631.934 69.688C631.934 78.008 626.942 83.78 618.674 83.78ZM618.726 79.568C624.134 79.568 626.63 75.252 626.63 69.74C626.63 64.176 624.134 59.912 618.726 59.912C613.214 59.912 610.718 64.176 610.718 69.74C610.718 75.252 613.214 79.568 618.726 79.568ZM647.555 55.856C648.491 55.856 649.219 55.908 649.999 56.012V60.9C649.375 60.796 648.907 60.744 648.283 60.744C643.655 60.744 640.327 64.228 640.327 69.272V83H635.231V56.48H640.327V61.524H640.431C641.835 58.196 643.967 55.856 647.555 55.856ZM32.636 126.1C33.52 126.1 33.936 126.048 34.82 125.892V130C33.52 130.26 32.688 130.312 31.596 130.312C27.228 130.312 24.576 128.648 24.576 122.512V107.692H20.728V103.48H24.576V94.952H29.672V103.48H34.768V107.692H29.672V122.668C29.672 125.476 30.452 126.1 32.636 126.1ZM61.7458 116.168C61.7458 116.896 61.7458 117.676 61.6938 118.092H41.3098C41.4138 122.512 44.0138 126.62 49.2658 126.62C53.9458 126.62 55.7658 123.604 56.2338 121.836H61.4338C60.0298 126.932 56.1298 130.78 49.1618 130.78C40.7378 130.78 36.0578 124.8 36.0578 116.688C36.0578 108.368 41.0498 102.648 49.1618 102.648C57.2218 102.648 61.7458 107.952 61.7458 116.168ZM41.3098 114.088H56.4418C56.4418 109.928 53.5298 106.808 49.0058 106.808C44.7418 106.808 41.6218 109.72 41.3098 114.088ZM70.1065 130H65.0105V92.82H70.1065V130ZM79.8829 130H74.7869V92.82H79.8829V130ZM123.25 102.7C128.606 102.7 131.31 105.924 131.31 111.592V130H126.214V112.996C126.214 109.46 125.486 107.068 121.586 107.068C117.79 107.068 115.398 109.72 115.398 113.724V130H110.302V112.996C110.302 109.46 109.574 107.068 105.674 107.068C101.878 107.068 99.4865 109.72 99.4865 113.724V130H94.3905V103.48H99.4865V106.808H99.5905C100.994 104.78 103.438 102.7 107.442 102.7C111.134 102.7 113.422 104.364 114.462 107.328H114.566C116.49 104.78 119.194 102.7 123.25 102.7ZM160.19 116.168C160.19 116.896 160.19 117.676 160.138 118.092H139.754C139.858 122.512 142.458 126.62 147.71 126.62C152.39 126.62 154.21 123.604 154.678 121.836H159.878C158.474 126.932 154.574 130.78 147.606 130.78C139.182 130.78 134.502 124.8 134.502 116.688C134.502 108.368 139.494 102.648 147.606 102.648C155.666 102.648 160.19 107.952 160.19 116.168ZM139.754 114.088H154.886C154.886 109.928 151.974 106.808 147.45 106.808C143.186 106.808 140.066 109.72 139.754 114.088ZM180.614 130.728C175.31 130.728 171.93 127.66 171.93 123.136C171.93 117.208 176.402 115.44 183.006 114.192C187.166 113.412 189.714 112.892 189.714 110.292C189.714 108.368 188.57 106.756 184.67 106.756C180.042 106.756 178.638 108.212 178.378 111.748H173.178C173.438 106.652 176.766 102.648 184.878 102.648C190.338 102.648 194.706 104.936 194.706 111.8V123.968C194.706 125.892 194.966 126.88 195.954 126.88C196.11 126.88 196.266 126.88 196.578 126.828V129.948C195.694 130.156 194.81 130.26 193.978 130.26C191.43 130.26 190.078 129.272 189.766 126.256H189.662C187.946 129.012 184.93 130.728 180.614 130.728ZM181.758 126.62C186.334 126.62 189.714 124.28 189.714 119.652V115.856C188.882 116.636 186.594 117.208 183.89 117.78C179.21 118.716 177.234 120.016 177.234 122.772C177.234 125.268 178.586 126.62 181.758 126.62ZM213.231 102.7C219.991 102.7 225.139 108.004 225.139 116.74C225.139 125.476 219.991 130.728 213.231 130.728C209.071 130.728 206.523 128.856 205.067 126.724H204.963V130H199.867V92.82H204.963V106.6H205.067C206.523 104.728 209.071 102.7 213.231 102.7ZM212.399 126.516C217.391 126.516 219.783 121.94 219.783 116.74C219.783 111.54 217.391 106.964 212.399 106.964C207.823 106.964 205.015 110.708 205.015 116.74C205.015 122.72 207.823 126.516 212.399 126.516ZM240.339 130.78C232.071 130.78 227.079 125.06 227.079 116.74C227.079 108.472 232.071 102.648 240.391 102.648C248.607 102.648 253.599 108.42 253.599 116.688C253.599 125.008 248.607 130.78 240.339 130.78ZM240.391 126.568C245.799 126.568 248.295 122.252 248.295 116.74C248.295 111.176 245.799 106.912 240.391 106.912C234.879 106.912 232.383 111.176 232.383 116.74C232.383 122.252 234.879 126.568 240.391 126.568ZM274.369 119.756V103.48H279.465V130H274.369V126.672H274.265C272.861 128.7 270.105 130.728 265.529 130.728C260.641 130.728 256.689 127.92 256.689 121.836V103.48H261.785V120.432C261.785 124.02 263.345 126.412 267.193 126.412C271.561 126.412 274.369 123.76 274.369 119.756ZM293.918 126.1C294.802 126.1 295.218 126.048 296.102 125.892V130C294.802 130.26 293.97 130.312 292.878 130.312C288.51 130.312 285.858 128.648 285.858 122.512V107.692H282.01V103.48H285.858V94.952H290.954V103.48H296.05V107.692H290.954V122.668C290.954 125.476 291.734 126.1 293.918 126.1ZM311.291 139.308C310.147 139.308 309.367 139.204 308.015 138.944V134.784C308.899 134.888 309.367 134.94 310.199 134.94C312.227 134.94 314.619 133.9 315.659 129.74L304.947 103.48H310.511L318.259 123.76H318.363L325.643 103.48H330.999L320.495 130.624C317.947 137.176 315.399 139.308 311.291 139.308ZM343.964 130.78C335.696 130.78 330.704 125.06 330.704 116.74C330.704 108.472 335.696 102.648 344.016 102.648C352.232 102.648 357.224 108.42 357.224 116.688C357.224 125.008 352.232 130.78 343.964 130.78ZM344.016 126.568C349.424 126.568 351.92 122.252 351.92 116.74C351.92 111.176 349.424 106.912 344.016 106.912C338.504 106.912 336.008 111.176 336.008 116.74C336.008 122.252 338.504 126.568 344.016 126.568ZM377.993 119.756V103.48H383.089V130H377.993V126.672H377.889C376.485 128.7 373.729 130.728 369.153 130.728C364.265 130.728 360.313 127.92 360.313 121.836V103.48H365.409V120.432C365.409 124.02 366.969 126.412 370.817 126.412C375.185 126.412 377.993 123.76 377.993 119.756ZM400.09 102.856C401.026 102.856 401.754 102.908 402.534 103.012V107.9C401.91 107.796 401.442 107.744 400.818 107.744C396.19 107.744 392.862 111.228 392.862 116.272V130H387.766V103.48H392.862V108.524H392.966C394.37 105.196 396.502 102.856 400.09 102.856ZM423.239 126.1C424.123 126.1 424.539 126.048 425.423 125.892V130C424.123 130.26 423.291 130.312 422.199 130.312C417.831 130.312 415.179 128.648 415.179 122.512V107.692H411.331V103.48H415.179V94.952H420.275V103.48H425.371V107.692H420.275V122.668C420.275 125.476 421.055 126.1 423.239 126.1ZM435.904 130.728C430.6 130.728 427.22 127.66 427.22 123.136C427.22 117.208 431.692 115.44 438.296 114.192C442.456 113.412 445.004 112.892 445.004 110.292C445.004 108.368 443.86 106.756 439.96 106.756C435.332 106.756 433.928 108.212 433.668 111.748H428.468C428.728 106.652 432.056 102.648 440.168 102.648C445.628 102.648 449.996 104.936 449.996 111.8V123.968C449.996 125.892 450.256 126.88 451.244 126.88C451.4 126.88 451.556 126.88 451.868 126.828V129.948C450.984 130.156 450.1 130.26 449.268 130.26C446.72 130.26 445.368 129.272 445.056 126.256H444.952C443.236 129.012 440.22 130.728 435.904 130.728ZM437.048 126.62C441.624 126.62 445.004 124.28 445.004 119.652V115.856C444.172 116.636 441.884 117.208 439.18 117.78C434.5 118.716 432.524 120.016 432.524 122.772C432.524 125.268 433.876 126.62 437.048 126.62ZM464.425 126.1C465.309 126.1 465.725 126.048 466.609 125.892V130C465.309 130.26 464.477 130.312 463.385 130.312C459.017 130.312 456.365 128.648 456.365 122.512V107.692H452.517V103.48H456.365V94.952H461.461V103.48H466.557V107.692H461.461V122.668C461.461 125.476 462.241 126.1 464.425 126.1ZM479.533 126.1C480.417 126.1 480.833 126.048 481.717 125.892V130C480.417 130.26 479.585 130.312 478.493 130.312C474.125 130.312 471.473 128.648 471.473 122.512V107.692H467.625V103.48H471.473V94.952H476.569V103.48H481.665V107.692H476.569V122.668C476.569 125.476 477.349 126.1 479.533 126.1ZM496.163 130.78C487.895 130.78 482.903 125.06 482.903 116.74C482.903 108.472 487.895 102.648 496.215 102.648C504.431 102.648 509.423 108.42 509.423 116.688C509.423 125.008 504.431 130.78 496.163 130.78ZM496.215 126.568C501.623 126.568 504.119 122.252 504.119 116.74C504.119 111.176 501.623 106.912 496.215 106.912C490.703 106.912 488.207 111.176 488.207 116.74C488.207 122.252 490.703 126.568 496.215 126.568ZM524.576 130.78C516.308 130.78 511.316 125.06 511.316 116.74C511.316 108.472 516.308 102.648 524.628 102.648C532.844 102.648 537.836 108.42 537.836 116.688C537.836 125.008 532.844 130.78 524.576 130.78ZM524.628 126.568C530.036 126.568 532.532 122.252 532.532 116.74C532.532 111.176 530.036 106.912 524.628 106.912C519.116 106.912 516.62 111.176 516.62 116.74C516.62 122.252 519.116 126.568 524.628 126.568ZM556.421 98.748H550.649V93.236H556.421V98.748ZM556.057 130H550.961V103.48H556.057V130ZM579.561 106.704V92.82H584.657V130H579.561V126.88H579.457C578.001 128.752 575.453 130.728 571.293 130.728C564.533 130.728 559.385 125.476 559.385 116.74C559.385 108.004 564.533 102.7 571.293 102.7C575.453 102.7 578.001 104.624 579.457 106.704H579.561ZM572.125 126.516C576.701 126.516 579.509 122.72 579.509 116.74C579.509 110.708 576.701 106.964 572.125 106.964C567.133 106.964 564.689 111.54 564.689 116.74C564.689 121.94 567.133 126.516 572.125 126.516ZM613.689 116.168C613.689 116.896 613.689 117.676 613.637 118.092H593.253C593.357 122.512 595.957 126.62 601.209 126.62C605.889 126.62 607.709 123.604 608.177 121.836H613.377C611.973 126.932 608.073 130.78 601.105 130.78C592.681 130.78 588.001 124.8 588.001 116.688C588.001 108.368 592.993 102.648 601.105 102.648C609.165 102.648 613.689 107.952 613.689 116.168ZM593.253 114.088H608.385C608.385 109.928 605.473 106.808 600.949 106.808C596.685 106.808 593.565 109.72 593.253 114.088ZM624.286 130.728C618.982 130.728 615.602 127.66 615.602 123.136C615.602 117.208 620.074 115.44 626.678 114.192C630.838 113.412 633.386 112.892 633.386 110.292C633.386 108.368 632.242 106.756 628.342 106.756C623.714 106.756 622.31 108.212 622.05 111.748H616.85C617.11 106.652 620.438 102.648 628.55 102.648C634.01 102.648 638.378 104.936 638.378 111.8V123.968C638.378 125.892 638.638 126.88 639.626 126.88C639.782 126.88 639.938 126.88 640.25 126.828V129.948C639.366 130.156 638.482 130.26 637.65 130.26C635.102 130.26 633.75 129.272 633.438 126.256H633.334C631.618 129.012 628.602 130.728 624.286 130.728ZM625.43 126.62C630.006 126.62 633.386 124.28 633.386 119.652V115.856C632.554 116.636 630.266 117.208 627.562 117.78C622.882 118.716 620.906 120.016 620.906 122.772C620.906 125.268 622.258 126.62 625.43 126.62Z" fill="#0D0D0D"/>
<path d="M1362.36 40L1370.61 31.7504L1368.25 29.3934L1360 37.643L1351.75 29.3934L1349.39 31.7504L1357.64 40L1349.39 48.2496L1351.75 50.6066L1360 42.357L1368.25 50.6066L1370.61 48.2496L1362.36 40Z" fill="#0D0D0D"/>
<path d="M26.0611 441H22.6051V418.12H27.2451L33.8371 436.104H33.9011L40.5251 418.12H45.1651V441H41.7091V423.24H41.6451L35.3411 441H32.4291L26.1251 423.24H26.0611V441ZM50.4401 446.728C49.7361 446.728 49.2561 446.664 48.4241 446.504V443.944C48.9681 444.008 49.2561 444.04 49.7681 444.04C51.0161 444.04 52.4881 443.4 53.1281 440.84L46.5361 424.68H49.9601L54.7281 437.16H54.7921L59.2721 424.68H62.5681L56.1041 441.384C54.5361 445.416 52.9681 446.728 50.4401 446.728ZM77.6866 424.2C80.6946 424.2 83.1266 425.928 83.1266 429.672V441H79.9906V430.536C79.9906 428.36 79.0306 426.888 76.6626 426.888C73.9746 426.888 72.2466 428.52 72.2466 430.984V441H69.1106V424.68H72.2466V426.728H72.3106C73.1746 425.48 74.8706 424.2 77.6866 424.2ZM90.3889 441.448C87.1249 441.448 85.0449 439.56 85.0449 436.776C85.0449 433.128 87.7969 432.04 91.8609 431.272C94.4209 430.792 95.9889 430.472 95.9889 428.872C95.9889 427.688 95.2849 426.696 92.8849 426.696C90.0369 426.696 89.1729 427.592 89.0129 429.768H85.8129C85.9729 426.632 88.0209 424.168 93.0129 424.168C96.3729 424.168 99.0609 425.576 99.0609 429.8V437.288C99.0609 438.472 99.2209 439.08 99.8289 439.08C99.9249 439.08 100.021 439.08 100.213 439.048V440.968C99.6689 441.096 99.1249 441.16 98.6129 441.16C97.0449 441.16 96.2129 440.552 96.0209 438.696H95.9569C94.9009 440.392 93.0449 441.448 90.3889 441.448ZM91.0929 438.92C93.9089 438.92 95.9889 437.48 95.9889 434.632V432.296C95.4769 432.776 94.0689 433.128 92.4049 433.48C89.5249 434.056 88.3089 434.856 88.3089 436.552C88.3089 438.088 89.1409 438.92 91.0929 438.92ZM119.997 424.2C123.293 424.2 124.957 426.184 124.957 429.672V441H121.821V430.536C121.821 428.36 121.373 426.888 118.973 426.888C116.637 426.888 115.165 428.52 115.165 430.984V441H112.029V430.536C112.029 428.36 111.581 426.888 109.181 426.888C106.845 426.888 105.373 428.52 105.373 430.984V441H102.237V424.68H105.373V426.728H105.437C106.301 425.48 107.805 424.2 110.269 424.2C112.541 424.2 113.949 425.224 114.589 427.048H114.653C115.837 425.48 117.501 424.2 119.997 424.2ZM142.729 432.488C142.729 432.936 142.729 433.416 142.697 433.672H130.153C130.217 436.392 131.817 438.92 135.049 438.92C137.929 438.92 139.049 437.064 139.337 435.976H142.537C141.673 439.112 139.273 441.48 134.985 441.48C129.801 441.48 126.921 437.8 126.921 432.808C126.921 427.688 129.993 424.168 134.985 424.168C139.945 424.168 142.729 427.432 142.729 432.488ZM130.153 431.208H139.465C139.465 428.648 137.673 426.728 134.889 426.728C132.265 426.728 130.345 428.52 130.153 431.208ZM154.146 421.768H150.594V418.376H154.146V421.768ZM153.922 441H150.786V424.68H153.922V441ZM163.234 441.448C158.274 441.448 155.81 438.888 155.714 435.56H158.882C159.01 437.448 160.162 438.92 163.202 438.92C165.954 438.92 166.69 437.704 166.69 436.52C166.69 434.472 164.514 434.248 162.402 433.8C159.554 433.128 156.29 432.296 156.29 428.904C156.29 426.088 158.562 424.2 162.498 424.2C166.978 424.2 169.122 426.6 169.346 429.416H166.178C165.954 428.168 165.282 426.728 162.562 426.728C160.45 426.728 159.554 427.56 159.554 428.776C159.554 430.472 161.378 430.632 163.682 431.144C166.69 431.848 169.954 432.712 169.954 436.36C169.954 439.528 167.522 441.448 163.234 441.448Z" fill="#0D0D0D"/>
<mask id="path-5-inside-1_1_481" fill="white">
<path d="M187 420H692V444H187V420Z"/>
</mask>
<path d="M692 444V443H187V444V445H692V444Z" fill="#BFBFBF" mask="url(#path-5-inside-1_1_481)"/>
<path d="M191.624 437.952H188.168V423.872H191.624V425.36H189.896V436.464H191.624V437.952ZM197.556 436H195.796V424.56H197.812L203.124 433.36H203.156V424.56H204.932V436H202.916L197.588 427.2H197.556V436ZM208.726 436.224C207.094 436.224 206.054 435.28 206.054 433.888C206.054 432.064 207.43 431.52 209.462 431.136C210.742 430.896 211.526 430.736 211.526 429.936C211.526 429.344 211.174 428.848 209.974 428.848C208.55 428.848 208.118 429.296 208.038 430.384H206.438C206.518 428.816 207.542 427.584 210.038 427.584C211.718 427.584 213.062 428.288 213.062 430.4V434.144C213.062 434.736 213.142 435.04 213.446 435.04C213.494 435.04 213.542 435.04 213.638 435.024V435.984C213.366 436.048 213.094 436.08 212.838 436.08C212.054 436.08 211.638 435.776 211.542 434.848H211.51C210.982 435.696 210.054 436.224 208.726 436.224ZM209.078 434.96C210.486 434.96 211.526 434.24 211.526 432.816V431.648C211.27 431.888 210.566 432.064 209.734 432.24C208.294 432.528 207.686 432.928 207.686 433.776C207.686 434.544 208.102 434.96 209.078 434.96ZM223.53 427.6C225.178 427.6 226.01 428.592 226.01 430.336V436H224.442V430.768C224.442 429.68 224.218 428.944 223.018 428.944C221.85 428.944 221.114 429.76 221.114 430.992V436H219.546V430.768C219.546 429.68 219.322 428.944 218.122 428.944C216.954 428.944 216.218 429.76 216.218 430.992V436H214.65V427.84H216.218V428.864H216.25C216.682 428.24 217.434 427.6 218.666 427.6C219.802 427.6 220.506 428.112 220.826 429.024H220.858C221.45 428.24 222.282 427.6 223.53 427.6ZM234.896 431.744C234.896 431.968 234.896 432.208 234.88 432.336H228.608C228.64 433.696 229.44 434.96 231.056 434.96C232.496 434.96 233.056 434.032 233.2 433.488H234.8C234.368 435.056 233.168 436.24 231.024 436.24C228.432 436.24 226.992 434.4 226.992 431.904C226.992 429.344 228.528 427.584 231.024 427.584C233.504 427.584 234.896 429.216 234.896 431.744ZM228.608 431.104H233.264C233.264 429.824 232.368 428.864 230.976 428.864C229.664 428.864 228.704 429.76 228.608 431.104ZM241.836 437.952H238.38V436.464H240.108V425.36H238.38V423.872H241.836V437.952Z" fill="#0D0D0D"/>
<path d="M688.006 428.24L686.694 430L685.766 429.344L687.062 427.664L685.03 427.056L685.398 426.048L687.414 426.672V424.56H688.598L688.582 426.672L690.598 426.048L690.966 427.056L688.934 427.664L690.246 429.344L689.318 430L688.006 428.24Z" fill="#0D0D0D"/>
<path d="M713.928 441H710.472V418.12H715.112L721.704 436.104H721.768L728.392 418.12H733.032V441H729.576V423.24H729.512L723.208 441H720.296L713.992 423.24H713.928V441ZM738.307 446.728C737.603 446.728 737.123 446.664 736.291 446.504V443.944C736.835 444.008 737.123 444.04 737.635 444.04C738.883 444.04 740.355 443.4 740.995 440.84L734.403 424.68H737.827L742.595 437.16H742.659L747.139 424.68H750.435L743.971 441.384C742.403 445.416 740.835 446.728 738.307 446.728ZM771.953 432.488C771.953 432.936 771.953 433.416 771.921 433.672H759.377C759.441 436.392 761.041 438.92 764.273 438.92C767.153 438.92 768.273 437.064 768.561 435.976H771.761C770.897 439.112 768.497 441.48 764.209 441.48C759.025 441.48 756.145 437.8 756.145 432.808C756.145 427.688 759.217 424.168 764.209 424.168C769.169 424.168 771.953 427.432 771.953 432.488ZM759.377 431.208H768.689C768.689 428.648 766.897 426.728 764.113 426.728C761.489 426.728 759.569 428.52 759.377 431.208ZM791.722 424.2C795.019 424.2 796.683 426.184 796.683 429.672V441H793.547V430.536C793.547 428.36 793.099 426.888 790.698 426.888C788.362 426.888 786.891 428.52 786.891 430.984V441H783.755V430.536C783.755 428.36 783.306 426.888 780.906 426.888C778.57 426.888 777.098 428.52 777.098 430.984V441H773.962V424.68H777.098V426.728H777.162C778.026 425.48 779.53 424.2 781.995 424.2C784.266 424.2 785.675 425.224 786.314 427.048H786.378C787.562 425.48 789.226 424.2 791.722 424.2ZM803.991 441.448C800.727 441.448 798.647 439.56 798.647 436.776C798.647 433.128 801.399 432.04 805.463 431.272C808.023 430.792 809.591 430.472 809.591 428.872C809.591 427.688 808.887 426.696 806.487 426.696C803.639 426.696 802.775 427.592 802.615 429.768H799.415C799.575 426.632 801.623 424.168 806.615 424.168C809.975 424.168 812.663 425.576 812.663 429.8V437.288C812.663 438.472 812.823 439.08 813.431 439.08C813.527 439.08 813.623 439.08 813.815 439.048V440.968C813.271 441.096 812.727 441.16 812.215 441.16C810.647 441.16 809.815 440.552 809.623 438.696H809.559C808.503 440.392 806.647 441.448 803.991 441.448ZM804.695 438.92C807.511 438.92 809.591 437.48 809.591 434.632V432.296C809.079 432.776 807.671 433.128 806.007 433.48C803.127 434.056 801.911 434.856 801.911 436.552C801.911 438.088 802.743 438.92 804.695 438.92ZM819.199 421.768H815.647V418.376H819.199V421.768ZM818.975 441H815.839V424.68H818.975V441ZM824.991 441H821.855V418.12H824.991V441ZM837.279 421.768H833.727V418.376H837.279V421.768ZM837.055 441H833.919V424.68H837.055V441ZM846.367 441.448C841.407 441.448 838.943 438.888 838.847 435.56H842.015C842.143 437.448 843.295 438.92 846.335 438.92C849.087 438.92 849.823 437.704 849.823 436.52C849.823 434.472 847.647 434.248 845.535 433.8C842.687 433.128 839.423 432.296 839.423 428.904C839.423 426.088 841.695 424.2 845.631 424.2C850.111 424.2 852.255 426.6 852.479 429.416H849.311C849.087 428.168 848.415 426.728 845.695 426.728C843.583 426.728 842.687 427.56 842.687 428.776C842.687 430.472 844.511 430.632 846.815 431.144C849.823 431.848 853.087 432.712 853.087 436.36C853.087 439.528 850.655 441.448 846.367 441.448Z" fill="#0D0D0D"/>
<mask id="path-10-inside-2_1_481" fill="white">
<path d="M870 420H1380V444H870V420Z"/>
</mask>
<path d="M1380 444V443H870V444V445H1380V444Z" fill="#BFBFBF" mask="url(#path-10-inside-2_1_481)"/>
<path d="M874.612 437.952H871.156V423.872H874.612V425.36H872.884V436.464H874.612V437.952ZM887.04 436H878.784V424.56H886.88V426.08H880.544V429.328H886.096V430.848H880.544V434.48H887.04V436ZM896.838 427.6C898.486 427.6 899.318 428.592 899.318 430.336V436H897.75V430.768C897.75 429.68 897.526 428.944 896.326 428.944C895.158 428.944 894.422 429.76 894.422 430.992V436H892.854V430.768C892.854 429.68 892.63 428.944 891.43 428.944C890.262 428.944 889.526 429.76 889.526 430.992V436H887.958V427.84H889.526V428.864H889.558C889.99 428.24 890.742 427.6 891.974 427.6C893.11 427.6 893.814 428.112 894.134 429.024H894.166C894.758 428.24 895.59 427.6 896.838 427.6ZM902.972 436.224C901.34 436.224 900.3 435.28 900.3 433.888C900.3 432.064 901.676 431.52 903.708 431.136C904.988 430.896 905.772 430.736 905.772 429.936C905.772 429.344 905.42 428.848 904.22 428.848C902.796 428.848 902.364 429.296 902.284 430.384H900.684C900.764 428.816 901.788 427.584 904.284 427.584C905.964 427.584 907.308 428.288 907.308 430.4V434.144C907.308 434.736 907.388 435.04 907.692 435.04C907.74 435.04 907.788 435.04 907.884 435.024V435.984C907.612 436.048 907.34 436.08 907.084 436.08C906.3 436.08 905.884 435.776 905.788 434.848H905.756C905.228 435.696 904.3 436.224 902.972 436.224ZM903.324 434.96C904.732 434.96 905.772 434.24 905.772 432.816V431.648C905.516 431.888 904.812 432.064 903.98 432.24C902.54 432.528 901.932 432.928 901.932 433.776C901.932 434.544 902.348 434.96 903.324 434.96ZM910.576 426.384H908.8V424.688H910.576V426.384ZM910.464 436H908.896V427.84H910.464V436ZM913.472 436H911.904V424.56H913.472V436ZM920.848 437.952H917.392V436.464H919.12V425.36H917.392V423.872H920.848V437.952Z" fill="#0D0D0D"/>
<path d="M1376.01 428.24L1374.69 430L1373.77 429.344L1375.06 427.664L1373.03 427.056L1373.4 426.048L1375.41 426.672V424.56H1376.6L1376.58 426.672L1378.6 426.048L1378.97 427.056L1376.93 427.664L1378.25 429.344L1377.32 430L1376.01 428.24Z" fill="#0D0D0D"/>
<path d="M26.0824 486H22.6264V463.12H27.2664L33.8584 481.104H33.9224L40.5464 463.12H45.1864V486H41.7304V468.24H41.6664L35.3624 486H32.4504L26.1464 468.24H26.0824V486ZM50.4614 491.728C49.7574 491.728 49.2774 491.664 48.4454 491.504V488.944C48.9894 489.008 49.2774 489.04 49.7894 489.04C51.0374 489.04 52.5094 488.4 53.1494 485.84L46.5574 469.68H49.9814L54.7494 482.16H54.8134L59.2934 469.68H62.5894L56.1254 486.384C54.5574 490.416 52.9894 491.728 50.4614 491.728ZM75.1479 483.6C75.6919 483.6 75.9479 483.568 76.4919 483.472V486C75.6919 486.16 75.1799 486.192 74.5079 486.192C71.8199 486.192 70.1879 485.168 70.1879 481.392V472.272H67.8199V469.68H70.1879V464.432H73.3239V469.68H76.4599V472.272H73.3239V481.488C73.3239 483.216 73.8039 483.6 75.1479 483.6ZM82.9414 486.448C79.6774 486.448 77.5974 484.56 77.5974 481.776C77.5974 478.128 80.3494 477.04 84.4134 476.272C86.9734 475.792 88.5414 475.472 88.5414 473.872C88.5414 472.688 87.8374 471.696 85.4374 471.696C82.5894 471.696 81.7254 472.592 81.5654 474.768H78.3654C78.5254 471.632 80.5734 469.168 85.5654 469.168C88.9254 469.168 91.6134 470.576 91.6134 474.8V482.288C91.6134 483.472 91.7734 484.08 92.3814 484.08C92.4774 484.08 92.5734 484.08 92.7654 484.048V485.968C92.2214 486.096 91.6774 486.16 91.1654 486.16C89.5974 486.16 88.7654 485.552 88.5734 483.696H88.5094C87.4534 485.392 85.5974 486.448 82.9414 486.448ZM83.6454 483.92C86.4614 483.92 88.5414 482.48 88.5414 479.632V477.296C88.0294 477.776 86.6214 478.128 84.9574 478.48C82.0774 479.056 80.8614 479.856 80.8614 481.552C80.8614 483.088 81.6934 483.92 83.6454 483.92ZM100.493 483.6C101.037 483.6 101.293 483.568 101.837 483.472V486C101.037 486.16 100.525 486.192 99.8529 486.192C97.1649 486.192 95.5329 485.168 95.5329 481.392V472.272H93.1649V469.68H95.5329V464.432H98.6689V469.68H101.805V472.272H98.6689V481.488C98.6689 483.216 99.1489 483.6 100.493 483.6ZM109.79 483.6C110.334 483.6 110.59 483.568 111.134 483.472V486C110.334 486.16 109.822 486.192 109.15 486.192C106.462 486.192 104.83 485.168 104.83 481.392V472.272H102.462V469.68H104.83V464.432H107.966V469.68H111.102V472.272H107.966V481.488C107.966 483.216 108.446 483.6 109.79 483.6ZM120.024 486.48C114.936 486.48 111.864 482.96 111.864 477.84C111.864 472.752 114.936 469.168 120.056 469.168C125.112 469.168 128.184 472.72 128.184 477.808C128.184 482.928 125.112 486.48 120.024 486.48ZM120.056 483.888C123.384 483.888 124.92 481.232 124.92 477.84C124.92 474.416 123.384 471.792 120.056 471.792C116.664 471.792 115.128 474.416 115.128 477.84C115.128 481.232 116.664 483.888 120.056 483.888ZM137.509 486.48C132.421 486.48 129.349 482.96 129.349 477.84C129.349 472.752 132.421 469.168 137.541 469.168C142.597 469.168 145.669 472.72 145.669 477.808C145.669 482.928 142.597 486.48 137.509 486.48ZM137.541 483.888C140.869 483.888 142.405 481.232 142.405 477.84C142.405 474.416 140.869 471.792 137.541 471.792C134.149 471.792 132.613 474.416 132.613 477.84C132.613 481.232 134.149 483.888 137.541 483.888ZM157.106 466.768H153.554V463.376H157.106V466.768ZM156.882 486H153.746V469.68H156.882V486ZM171.346 471.664V463.12H174.482V486H171.346V484.08H171.282C170.386 485.232 168.818 486.448 166.258 486.448C162.098 486.448 158.93 483.216 158.93 477.84C158.93 472.464 162.098 469.2 166.258 469.2C168.818 469.2 170.386 470.384 171.282 471.664H171.346ZM166.77 483.856C169.586 483.856 171.314 481.52 171.314 477.84C171.314 474.128 169.586 471.824 166.77 471.824C163.698 471.824 162.194 474.64 162.194 477.84C162.194 481.04 163.698 483.856 166.77 483.856ZM192.348 477.488C192.348 477.936 192.348 478.416 192.316 478.672H179.772C179.836 481.392 181.436 483.92 184.668 483.92C187.548 483.92 188.668 482.064 188.956 480.976H192.156C191.292 484.112 188.892 486.48 184.604 486.48C179.42 486.48 176.54 482.8 176.54 477.808C176.54 472.688 179.612 469.168 184.604 469.168C189.564 469.168 192.348 472.432 192.348 477.488ZM179.772 476.208H189.084C189.084 473.648 187.292 471.728 184.508 471.728C181.884 471.728 179.964 473.52 179.772 476.208ZM198.869 486.448C195.605 486.448 193.525 484.56 193.525 481.776C193.525 478.128 196.277 477.04 200.341 476.272C202.901 475.792 204.469 475.472 204.469 473.872C204.469 472.688 203.765 471.696 201.365 471.696C198.517 471.696 197.653 472.592 197.493 474.768H194.293C194.453 471.632 196.501 469.168 201.493 469.168C204.853 469.168 207.541 470.576 207.541 474.8V482.288C207.541 483.472 207.701 484.08 208.309 484.08C208.405 484.08 208.501 484.08 208.693 484.048V485.968C208.149 486.096 207.605 486.16 207.093 486.16C205.525 486.16 204.693 485.552 204.501 483.696H204.437C203.381 485.392 201.525 486.448 198.869 486.448ZM199.573 483.92C202.389 483.92 204.469 482.48 204.469 479.632V477.296C203.957 477.776 202.549 478.128 200.885 478.48C198.005 479.056 196.789 479.856 196.789 481.552C196.789 483.088 197.621 483.92 199.573 483.92ZM220.124 466.768H216.572V463.376H220.124V466.768ZM219.9 486H216.764V469.68H219.9V486ZM229.213 486.448C224.253 486.448 221.789 483.888 221.693 480.56H224.861C224.989 482.448 226.141 483.92 229.181 483.92C231.933 483.92 232.669 482.704 232.669 481.52C232.669 479.472 230.493 479.248 228.381 478.8C225.533 478.128 222.269 477.296 222.269 473.904C222.269 471.088 224.541 469.2 228.477 469.2C232.957 469.2 235.101 471.6 235.325 474.416H232.157C231.933 473.168 231.261 471.728 228.541 471.728C226.429 471.728 225.533 472.56 225.533 473.776C225.533 475.472 227.357 475.632 229.661 476.144C232.669 476.848 235.933 477.712 235.933 481.36C235.933 484.528 233.501 486.448 229.213 486.448Z" fill="#0D0D0D"/>
<mask id="path-15-inside-3_1_481" fill="white">
<path d="M257 465H1380V489H257V465Z"/>
</mask>
<path d="M1380 489V488H257V489V490H1380V489Z" fill="#BFBFBF" mask="url(#path-15-inside-3_1_481)"/>
<path d="M261.752 482.952H258.296V468.872H261.752V470.36H260.024V481.464H261.752V482.952ZM270.046 481H268.27V471.08H264.574V469.56H273.742V471.08H270.046V481ZM274.885 481.224C273.253 481.224 272.213 480.28 272.213 478.888C272.213 477.064 273.589 476.52 275.621 476.136C276.901 475.896 277.685 475.736 277.685 474.936C277.685 474.344 277.333 473.848 276.133 473.848C274.709 473.848 274.277 474.296 274.197 475.384H272.597C272.677 473.816 273.701 472.584 276.197 472.584C277.877 472.584 279.221 473.288 279.221 475.4V479.144C279.221 479.736 279.301 480.04 279.605 480.04C279.653 480.04 279.701 480.04 279.797 480.024V480.984C279.525 481.048 279.253 481.08 278.997 481.08C278.213 481.08 277.797 480.776 277.701 479.848H277.669C277.141 480.696 276.213 481.224 274.885 481.224ZM275.237 479.96C276.645 479.96 277.685 479.24 277.685 477.816V476.648C277.429 476.888 276.725 477.064 275.893 477.24C274.453 477.528 273.845 477.928 273.845 478.776C273.845 479.544 274.261 479.96 275.237 479.96ZM283.661 479.8C283.933 479.8 284.061 479.784 284.333 479.736V481C283.933 481.08 283.677 481.096 283.341 481.096C281.997 481.096 281.181 480.584 281.181 478.696V474.136H279.997V472.84H281.181V470.216H282.749V472.84H284.317V474.136H282.749V478.744C282.749 479.608 282.989 479.8 283.661 479.8ZM288.309 479.8C288.581 479.8 288.709 479.784 288.981 479.736V481C288.581 481.08 288.325 481.096 287.989 481.096C286.645 481.096 285.829 480.584 285.829 478.696V474.136H284.645V472.84H285.829V470.216H287.397V472.84H288.965V474.136H287.397V478.744C287.397 479.608 287.637 479.8 288.309 479.8ZM293.426 481.24C290.882 481.24 289.346 479.48 289.346 476.92C289.346 474.376 290.882 472.584 293.442 472.584C295.97 472.584 297.506 474.36 297.506 476.904C297.506 479.464 295.97 481.24 293.426 481.24ZM293.442 479.944C295.106 479.944 295.874 478.616 295.874 476.92C295.874 475.208 295.106 473.896 293.442 473.896C291.746 473.896 290.978 475.208 290.978 476.92C290.978 478.616 291.746 479.944 293.442 479.944ZM302.169 481.24C299.625 481.24 298.089 479.48 298.089 476.92C298.089 474.376 299.625 472.584 302.185 472.584C304.713 472.584 306.249 474.36 306.249 476.904C306.249 479.464 304.713 481.24 302.169 481.24ZM302.185 479.944C303.849 479.944 304.617 478.616 304.617 476.92C304.617 475.208 303.849 473.896 302.185 473.896C300.489 473.896 299.721 475.208 299.721 476.92C299.721 478.616 300.489 479.944 302.185 479.944ZM311.967 471.384H310.191V469.688H311.967V471.384ZM311.855 481H310.287V472.84H311.855V481ZM319.087 473.832V469.56H320.655V481H319.087V480.04H319.055C318.607 480.616 317.823 481.224 316.543 481.224C314.463 481.224 312.879 479.608 312.879 476.92C312.879 474.232 314.463 472.6 316.543 472.6C317.823 472.6 318.607 473.192 319.055 473.832H319.087ZM316.799 479.928C318.207 479.928 319.071 478.76 319.071 476.92C319.071 475.064 318.207 473.912 316.799 473.912C315.263 473.912 314.511 475.32 314.511 476.92C314.511 478.52 315.263 479.928 316.799 479.928ZM329.588 476.744C329.588 476.968 329.588 477.208 329.572 477.336H323.3C323.332 478.696 324.132 479.96 325.748 479.96C327.188 479.96 327.748 479.032 327.892 478.488H329.492C329.06 480.056 327.86 481.24 325.716 481.24C323.124 481.24 321.684 479.4 321.684 476.904C321.684 474.344 323.22 472.584 325.716 472.584C328.196 472.584 329.588 474.216 329.588 476.744ZM323.3 476.104H327.956C327.956 474.824 327.06 473.864 325.668 473.864C324.356 473.864 323.396 474.76 323.3 476.104ZM332.849 481.224C331.217 481.224 330.177 480.28 330.177 478.888C330.177 477.064 331.553 476.52 333.585 476.136C334.865 475.896 335.649 475.736 335.649 474.936C335.649 474.344 335.297 473.848 334.097 473.848C332.673 473.848 332.241 474.296 332.161 475.384H330.561C330.641 473.816 331.665 472.584 334.161 472.584C335.841 472.584 337.185 473.288 337.185 475.4V479.144C337.185 479.736 337.265 480.04 337.569 480.04C337.617 480.04 337.665 480.04 337.761 480.024V480.984C337.489 481.048 337.217 481.08 336.961 481.08C336.177 481.08 335.761 480.776 335.665 479.848H335.633C335.105 480.696 334.177 481.224 332.849 481.224ZM333.201 479.96C334.609 479.96 335.649 479.24 335.649 477.816V476.648C335.393 476.888 334.689 477.064 333.857 477.24C332.417 477.528 331.809 477.928 331.809 478.776C331.809 479.544 332.225 479.96 333.201 479.96ZM344.708 482.952H341.252V481.464H342.98V470.36H341.252V468.872H344.708V482.952Z" fill="#0D0D0D"/>
<rect width="1360" height="44" transform="translate(20 529)" fill="#0D0D0D"/>
<path d="M650.3 558.28C646.68 558.28 644.14 556.4 643.98 553.18H646.26C646.42 555.1 647.56 556.4 650.24 556.4C652.54 556.4 653.24 555.4 653.24 554.1C653.24 552.28 651.84 552.02 649.24 551.36C647 550.76 644.54 550.04 644.54 547.32C644.54 544.84 646.46 543.42 649.54 543.42C652.8 543.42 654.92 545.08 655.14 547.96H652.86C652.62 546.24 651.64 545.3 649.56 545.3C647.76 545.3 646.84 545.96 646.84 547.2C646.84 548.8 648.34 549.14 650.18 549.6C652.94 550.3 655.54 550.96 655.54 553.98C655.54 556.44 653.88 558.28 650.3 558.28ZM666.158 552.68C666.158 552.96 666.158 553.26 666.138 553.42H658.298C658.338 555.12 659.338 556.7 661.358 556.7C663.158 556.7 663.858 555.54 664.038 554.86H666.038C665.498 556.82 663.998 558.3 661.318 558.3C658.078 558.3 656.278 556 656.278 552.88C656.278 549.68 658.198 547.48 661.318 547.48C664.418 547.48 666.158 549.52 666.158 552.68ZM658.298 551.88H664.118C664.118 550.28 662.998 549.08 661.258 549.08C659.618 549.08 658.418 550.2 658.298 551.88ZM672.773 547.5C674.653 547.5 676.173 548.58 676.173 550.92V558H674.213V551.46C674.213 550.1 673.613 549.18 672.133 549.18C670.453 549.18 669.373 550.2 669.373 551.74V558H667.413V547.8H669.373V549.08H669.413C669.953 548.3 671.013 547.5 672.773 547.5ZM685.132 549.04V543.7H687.092V558H685.132V556.8H685.092C684.532 557.52 683.552 558.28 681.952 558.28C679.352 558.28 677.372 556.26 677.372 552.9C677.372 549.54 679.352 547.5 681.952 547.5C683.552 547.5 684.532 548.24 685.092 549.04H685.132ZM682.272 556.66C684.032 556.66 685.112 555.2 685.112 552.9C685.112 550.58 684.032 549.14 682.272 549.14C680.352 549.14 679.412 550.9 679.412 552.9C679.412 554.9 680.352 556.66 682.272 556.66ZM697.418 547.56C697.778 547.56 698.058 547.58 698.358 547.62V549.5C698.118 549.46 697.938 549.44 697.698 549.44C695.918 549.44 694.638 550.78 694.638 552.72V558H692.678V547.8H694.638V549.74H694.678C695.218 548.46 696.038 547.56 697.418 547.56ZM708.162 552.68C708.162 552.96 708.162 553.26 708.142 553.42H700.302C700.342 555.12 701.342 556.7 703.362 556.7C705.162 556.7 705.862 555.54 706.042 554.86H708.042C707.502 556.82 706.002 558.3 703.322 558.3C700.082 558.3 698.282 556 698.282 552.88C698.282 549.68 700.202 547.48 703.322 547.48C706.422 547.48 708.162 549.52 708.162 552.68ZM700.302 551.88H706.122C706.122 550.28 705.002 549.08 703.262 549.08C701.622 549.08 700.422 550.2 700.302 551.88ZM716.657 549.04V547.8H718.617V561.54H716.657V556.8H716.617C716.057 557.52 715.077 558.28 713.477 558.28C710.877 558.28 708.897 556.26 708.897 552.9C708.897 549.54 710.877 547.5 713.477 547.5C715.077 547.5 716.057 548.24 716.617 549.04H716.657ZM713.797 556.66C715.557 556.66 716.637 555.2 716.637 552.9C716.637 550.58 715.557 549.14 713.797 549.14C711.877 549.14 710.937 550.9 710.937 552.9C710.937 554.9 711.877 556.66 713.797 556.66ZM727.124 554.06V547.8H729.084V558H727.124V556.72H727.084C726.544 557.5 725.484 558.28 723.724 558.28C721.844 558.28 720.324 557.2 720.324 554.86V547.8H722.284V554.32C722.284 555.7 722.884 556.62 724.364 556.62C726.044 556.62 727.124 555.6 727.124 554.06ZM740.243 552.68C740.243 552.96 740.243 553.26 740.223 553.42H732.383C732.423 555.12 733.423 556.7 735.443 556.7C737.243 556.7 737.943 555.54 738.123 554.86H740.123C739.583 556.82 738.083 558.3 735.403 558.3C732.163 558.3 730.363 556 730.363 552.88C730.363 549.68 732.283 547.48 735.403 547.48C738.503 547.48 740.243 549.52 740.243 552.68ZM732.383 551.88H738.203C738.203 550.28 737.083 549.08 735.343 549.08C733.703 549.08 732.503 550.2 732.383 551.88ZM745.518 558.28C742.418 558.28 740.878 556.68 740.818 554.6H742.798C742.878 555.78 743.598 556.7 745.498 556.7C747.218 556.7 747.678 555.94 747.678 555.2C747.678 553.92 746.318 553.78 744.998 553.5C743.218 553.08 741.178 552.56 741.178 550.44C741.178 548.68 742.598 547.5 745.058 547.5C747.858 547.5 749.198 549 749.338 550.76H747.358C747.218 549.98 746.798 549.08 745.098 549.08C743.778 549.08 743.218 549.6 743.218 550.36C743.218 551.42 744.358 551.52 745.798 551.84C747.678 552.28 749.718 552.82 749.718 555.1C749.718 557.08 748.198 558.28 745.518 558.28ZM754.507 556.5C754.847 556.5 755.007 556.48 755.347 556.42V558C754.847 558.1 754.527 558.12 754.107 558.12C752.427 558.12 751.407 557.48 751.407 555.12V549.42H749.927V547.8H751.407V544.52H753.367V547.8H755.327V549.42H753.367V555.18C753.367 556.26 753.667 556.5 754.507 556.5Z" fill="#F2F2F2"/>
<path d="M45.84 215.76H53.36V227.68C53.36 228.8 53.68 229.52 54.32 229.84C54.96 230.107 56.4 230.24 58.64 230.24C59.1733 230.24 60.08 230.24 61.36 230.24C62.6933 230.24 64.1333 230.24 65.68 230.24C67.2267 230.24 68.6933 230.24 70.08 230.24C71.4667 230.24 72.5333 230.24 73.28 230.24C74.56 230.24 75.4933 230.053 76.08 229.68C76.72 229.253 77.1733 228.4 77.44 227.12C77.7067 225.787 77.92 223.76 78.08 221.04C78.6133 221.413 79.28 221.787 80.08 222.16C80.88 222.533 81.7067 222.88 82.56 223.2C83.4133 223.467 84.1867 223.653 84.88 223.76C84.6133 227.333 84.1067 230.08 83.36 232C82.6667 233.92 81.5733 235.227 80.08 235.92C78.5867 236.667 76.5067 237.04 73.84 237.04C73.36 237.04 72.5867 237.04 71.52 237.04C70.5067 237.04 69.3067 237.04 67.92 237.04C66.5867 237.04 65.2267 237.04 63.84 237.04C62.5067 237.04 61.3067 237.04 60.24 237.04C59.1733 237.04 58.4533 237.04 58.08 237.04C54.8267 237.04 52.32 236.773 50.56 236.24C48.8 235.707 47.5733 234.747 46.88 233.36C46.1867 232.027 45.84 230.187 45.84 227.84V215.76ZM56.88 213.76L62.08 209.76C63.3067 210.827 64.6133 212.027 66 213.36C67.3867 214.693 68.72 216.027 70 217.36C71.28 218.64 72.32 219.787 73.12 220.8L67.68 225.36C66.88 224.347 65.8667 223.173 64.64 221.84C63.4133 220.507 62.1067 219.12 60.72 217.68C59.3867 216.24 58.1067 214.933 56.88 213.76ZM84.48 216.24L91.12 213.2C92.24 214.853 93.4133 216.667 94.64 218.64C95.92 220.613 97.12 222.533 98.24 224.4C99.4133 226.267 100.32 227.893 100.96 229.28L93.92 232.8C93.28 231.413 92.4267 229.76 91.36 227.84C90.2933 225.92 89.1467 223.947 87.92 221.92C86.7467 219.893 85.6 218 84.48 216.24ZM34.48 214.56L41.12 217.2C40.5867 219.013 39.9467 220.987 39.2 223.12C38.5067 225.2 37.7067 227.227 36.8 229.2C35.9467 231.173 34.9867 232.933 33.92 234.48L27.12 231.04C28.1867 229.6 29.1733 227.947 30.08 226.08C31.04 224.213 31.8933 222.293 32.64 220.32C33.3867 218.293 34 216.373 34.48 214.56ZM28.16 176.16H61.44V182.72H28.16V176.16ZM42.16 164.64H49.36V211.92H42.16V164.64ZM41.92 180.32L47.12 182.08C46 185.333 44.5867 188.56 42.88 191.76C41.1733 194.96 39.3333 197.92 37.36 200.64C35.3867 203.36 33.3333 205.627 31.2 207.44C30.6133 206.64 29.84 205.707 28.88 204.64C27.92 203.573 27.04 202.747 26.24 202.16C28.32 200.667 30.3467 198.747 32.32 196.4C34.3467 194.053 36.1867 191.493 37.84 188.72C39.4933 185.947 40.8533 183.147 41.92 180.32ZM48.88 186.24C49.52 186.613 50.48 187.253 51.76 188.16C53.04 189.013 54.4 189.947 55.84 190.96C57.28 191.973 58.6133 192.933 59.84 193.84C61.0667 194.747 61.9467 195.413 62.48 195.84L58.4 201.92C57.6533 201.12 56.6933 200.187 55.52 199.12C54.3467 198 53.0933 196.853 51.76 195.68C50.4267 194.507 49.1467 193.413 47.92 192.4C46.7467 191.387 45.76 190.56 44.96 189.92L48.88 186.24ZM71.76 186.64V192.88H89.44V186.64H71.76ZM71.76 198.64V204.96H89.44V198.64H71.76ZM71.76 174.72V180.88H89.44V174.72H71.76ZM64.8 168.64H96.72V211.04H64.8V168.64Z" fill="black"/>
</svg>
